<svg width="597" height="146" viewBox="0 0 597 146" fill="none" xmlns="http://www.w3.org/2000/svg">
<g clip-path="url(#clip0)">
<path d="M259.383 -1.55319H254.723V144.447H259.383V-1.55319Z" fill="white"/>
<path d="M306.458 92.4628C304.621 92.4628 303.261 92.4288 302.376 92.3608L297.988 107.158C296.355 107.566 294.076 107.77 291.151 107.77C287.885 107.77 285.232 107.396 283.191 106.648L282.681 105.831L305.132 37.3562C307.785 36.948 310.88 36.7439 314.418 36.7439C318.432 36.7439 321.63 36.982 324.011 37.4582L346.054 106.035C343.672 107.328 340.985 107.974 337.992 107.974C334.454 107.974 331.971 107.362 330.542 106.137C329.113 104.913 327.889 102.566 326.868 99.0961L324.929 92.3608C324.045 92.4288 322.718 92.4628 320.949 92.4628H306.458V92.4628ZM306.152 79.6046L310.234 79.5026H317.684C318.024 79.5026 318.619 79.5196 319.47 79.5536C320.32 79.5876 320.949 79.6046 321.358 79.6046L319.623 73.2776C317.99 67.5628 316.119 60.5554 314.01 52.2554H313.398C312.853 55.1808 311.221 61.678 308.499 71.7468L306.152 79.6046ZM404.63 58.8886C404.63 61.1337 404.29 63.2597 403.609 65.2667C402.929 67.2737 402.028 69.0765 400.905 70.6753C399.783 72.2741 398.456 73.6688 396.925 74.8593C395.394 76.0499 393.813 76.9514 392.18 77.5636C395.718 78.8563 398.337 81.9858 400.038 86.9522L403.099 95.6264C404.256 99.028 405.956 101.545 408.202 103.178C407.181 104.539 405.65 105.678 403.609 106.597C401.568 107.515 399.323 107.974 396.874 107.974C394.425 107.974 392.52 107.277 391.159 105.882C389.799 104.488 388.54 102.055 387.384 98.5858L383.71 87.8706C382.961 85.8296 381.958 84.2649 380.699 83.1764C379.441 82.0878 377.553 81.5436 375.036 81.5436H370.852V107.056C368.674 107.464 365.953 107.668 362.688 107.668C359.422 107.668 356.735 107.464 354.626 107.056V37.8664L355.34 37.1521C361.259 37.016 366.242 36.914 370.29 36.8459C374.338 36.7779 377.519 36.7439 379.832 36.7439C383.574 36.7439 386.975 37.2031 390.037 38.1216C393.098 39.04 395.701 40.4177 397.844 42.2546C399.987 44.0915 401.653 46.4046 402.844 49.1939C404.035 51.9833 404.63 55.2148 404.63 58.8886V58.8886ZM370.852 48.9898V68.9915C373.913 68.9915 376.532 68.9405 378.709 68.8384C380.886 68.7364 382.638 68.3282 383.965 67.6138C385.292 66.8995 386.295 65.896 386.975 64.6034C387.656 63.3108 387.996 61.4398 387.996 58.9907C387.996 52.3915 384.798 49.0919 378.403 49.0919H374.168C374.168 49.0919 373.063 49.0579 370.852 48.9898V48.9898ZM452.491 65.1136V63.889C452.491 53.8202 448.749 48.7857 441.266 48.7857C436.98 48.7857 433.884 50.7417 431.979 54.6536C430.074 58.5655 429.122 64.3312 429.122 71.9509C429.122 79.5026 430.312 85.1153 432.693 88.7891C435.075 92.4629 438.544 94.2997 443.102 94.2997C445.484 94.2997 448.12 93.7385 451.011 92.6159C453.903 91.4934 457.049 89.7075 460.451 87.2583C462.152 88.4149 463.733 89.9967 465.196 92.0036C466.659 94.0106 467.56 95.9325 467.9 97.7694C466.336 99.2661 464.516 100.678 462.441 102.004C460.366 103.331 458.121 104.471 455.706 105.423C453.29 106.376 450.773 107.141 448.154 107.719C445.535 108.298 442.898 108.587 440.245 108.587C435.007 108.587 430.584 107.583 426.979 105.576C423.373 103.569 420.465 100.899 418.253 97.5653C416.042 94.2317 414.444 90.3879 413.457 86.0337C412.471 81.6796 411.977 77.1554 411.977 72.4612C411.977 66.3382 412.743 60.9806 414.274 56.3884C415.804 51.7962 417.879 47.9693 420.499 44.9078C423.118 41.8464 426.196 39.5503 429.734 38.0195C433.272 36.4888 437.048 35.7234 441.061 35.7234C445.143 35.7234 448.851 36.2677 452.185 37.3562C455.518 38.4447 458.359 39.9414 460.706 41.8464C463.053 43.7513 464.856 45.9964 466.115 48.5816C467.373 51.1669 468.003 53.9562 468.003 56.9497C468.003 63.0046 464.907 66.0321 458.716 66.0321C456.879 66.0321 454.804 65.7259 452.491 65.1136V65.1136ZM532.396 37.3562V81.3395C532.396 90.0477 530.015 96.7659 525.252 101.494C520.49 106.223 513.687 108.587 504.842 108.587C495.998 108.587 489.178 106.223 484.381 101.494C479.585 96.7659 477.187 90.0477 477.187 81.3395V37.3562L477.901 36.6418H483.922C490.385 36.6418 493.617 40.1115 493.617 47.0509V81.5436C493.617 86.3059 494.467 89.8436 496.168 92.1567C497.869 94.4698 500.76 95.6264 504.842 95.6264C508.924 95.6264 511.816 94.4698 513.517 92.1567C515.217 89.8436 516.068 86.3059 516.068 81.5436V37.3562C518.177 36.948 520.898 36.7439 524.232 36.7439C527.497 36.7439 530.219 36.948 532.396 37.3562V37.3562ZM540.662 101.035C540.866 98.7899 541.563 96.5448 542.754 94.2997C543.944 92.0547 545.356 90.2178 546.989 88.7891C554.268 93.2112 561.174 95.4223 567.705 95.4223C570.562 95.4223 572.654 94.776 573.981 93.4833C575.307 92.1907 575.971 90.5919 575.971 88.687C575.971 85.4895 573.828 82.9723 569.542 81.1354L557.5 76.0329C552.806 73.9239 549.2 71.3897 546.683 68.4302C544.165 65.4708 542.907 61.712 542.907 57.1538C542.907 54.0243 543.536 51.1669 544.795 48.5816C546.053 45.9964 547.822 43.7513 550.101 41.8464C552.38 39.9414 555.085 38.4617 558.214 37.4072C561.344 36.3527 564.813 35.8255 568.623 35.8255C576.243 35.8255 583.931 37.7644 591.686 41.6423C591.346 46.8808 589.509 50.9628 586.176 53.8882C579.236 50.5546 573.113 48.8878 567.807 48.8878C565.086 48.8878 563.045 49.5001 561.684 50.7247C560.323 51.9493 559.643 53.3439 559.643 54.9087C559.643 57.562 561.65 59.705 565.664 61.3378L577.91 66.5423C583.08 68.7194 586.941 71.5087 589.492 74.9104C592.044 78.312 593.319 82.2579 593.319 86.7481C593.319 89.9456 592.741 92.871 591.584 95.5243C590.428 98.1776 588.71 100.474 586.431 102.413C584.152 104.352 581.311 105.865 577.91 106.954C574.508 108.042 570.528 108.587 565.97 108.587C557.126 108.587 548.69 106.069 540.662 101.035V101.035Z" fill="white"/>
<path fill-rule="evenodd" clip-rule="evenodd" d="M169.531 47H174.618C171.913 43.0618 168.445 39.6759 164.403 37.0448C159.31 33.7293 153.464 31.716 147.39 31.1857C141.316 30.6554 135.204 31.6246 129.602 34.0064C123.95 24.4 115.007 17.1111 104.392 13.458C93.7776 9.805 82.1912 10.0291 71.7289 14.0897C61.2666 18.1503 52.6192 25.7794 47.3508 35.5971C42.0825 45.4147 40.541 56.7726 43.0052 67.6165C34.867 68.3386 27.2959 72.044 21.7794 78.0046C16.2629 83.9652 13.1997 91.7503 13.1915 99.8304C13.1915 108.417 16.6409 116.652 22.7808 122.723C28.9207 128.795 37.2482 132.206 45.9314 132.206H97V128.159H45.9314C38.5709 128.136 31.5017 125.313 26.19 120.274C20.8783 115.235 17.7316 108.368 17.4027 101.097C17.0737 93.8252 19.5877 86.7076 24.4231 81.22C29.2586 75.7323 36.0446 72.2958 43.3736 71.623L48.039 71.2183L47.0159 66.7059C44.7869 56.8136 46.2067 46.4592 51.0191 37.5111C55.8316 28.5629 63.7198 21.6104 73.2603 17.9079C82.8008 14.2055 93.3654 13.997 103.048 17.32C112.73 20.643 120.893 27.2788 126.062 36.0299L127.883 39.1258L131.219 37.7094C136.199 35.5918 141.634 34.7303 147.034 35.2024C152.434 35.6744 157.631 37.4652 162.159 40.4139C164.951 42.2322 167.434 44.4558 169.531 47Z" fill="white"/>
<path d="M169.531 47L166.83 49.2259L167.88 50.5H169.531V47ZM174.618 47V50.5H181.269L177.503 45.0182L174.618 47ZM164.403 37.0448L166.313 34.1116L166.313 34.1116L164.403 37.0448ZM147.39 31.1857L147.695 27.699L147.695 27.699L147.39 31.1857ZM129.602 34.0064L126.586 35.7814L128.144 38.4297L130.972 37.2274L129.602 34.0064ZM104.392 13.458L105.531 10.1485L105.531 10.1485L104.392 13.458ZM71.7289 14.0897L72.9953 17.3526L71.7289 14.0897ZM47.3508 35.5971L44.2668 33.9421L44.2668 33.9421L47.3508 35.5971ZM43.0052 67.6165L43.3146 71.1028L47.3062 70.7486L46.4182 66.8409L43.0052 67.6165ZM21.7794 78.0046L19.2107 75.6273L19.2107 75.6273L21.7794 78.0046ZM13.1915 99.8304L9.6915 99.8268V99.8304H13.1915ZM22.7808 122.723L20.3198 125.212L20.3198 125.212L22.7808 122.723ZM97 132.206V135.706H100.5V132.206H97ZM97 128.159H100.5V124.659H97V128.159ZM45.9314 128.159L45.9205 131.659H45.9314V128.159ZM26.19 120.274L28.5988 117.735L28.5988 117.735L26.19 120.274ZM17.4027 101.097L20.8991 100.938L20.8991 100.938L17.4027 101.097ZM43.3736 71.623L43.0711 68.1361L43.0624 68.1368L43.0536 68.1376L43.3736 71.623ZM48.039 71.2183L48.3415 74.7052L52.3398 74.3584L51.4524 70.4444L48.039 71.2183ZM47.0159 66.7059L43.6015 67.4753L43.6025 67.4799L47.0159 66.7059ZM51.0191 37.5111L47.9366 35.8533L47.9366 35.8533L51.0191 37.5111ZM73.2603 17.9079L71.994 14.645L71.994 14.645L73.2603 17.9079ZM103.048 17.32L104.184 14.0095L103.048 17.32ZM126.062 36.0299L129.079 34.2553L129.076 34.2497L126.062 36.0299ZM127.883 39.1258L124.867 40.9004L126.424 43.5481L129.251 42.3474L127.883 39.1258ZM131.219 37.7094L132.587 40.9309L132.588 40.9303L131.219 37.7094ZM162.159 40.4139L160.249 43.3467L160.249 43.3467L162.159 40.4139ZM169.531 50.5H174.618V43.5H169.531V50.5ZM177.503 45.0182C174.537 40.7013 170.738 36.9924 166.313 34.1116L162.494 39.9781C166.152 42.3594 169.288 45.4223 171.733 48.9818L177.503 45.0182ZM166.313 34.1116C160.737 30.4815 154.339 28.2791 147.695 27.699L147.086 34.6724C152.59 35.1529 157.884 36.977 162.494 39.9781L166.313 34.1116ZM147.695 27.699C141.05 27.1189 134.363 28.1789 128.233 30.7855L130.972 37.2274C136.045 35.0703 141.582 34.1919 147.086 34.6724L147.695 27.699ZM132.619 32.2315C126.54 21.9005 116.929 14.0709 105.531 10.1485L103.254 16.7675C113.086 20.1513 121.36 26.8995 126.586 35.7814L132.619 32.2315ZM105.531 10.1485C94.1347 6.22643 81.6961 6.46684 70.4625 10.8268L72.9953 17.3526C82.6862 13.5913 93.4205 13.3836 103.254 16.7675L105.531 10.1485ZM70.4625 10.8268C59.2281 15.1871 49.933 23.3831 44.2668 33.9421L50.4348 37.252C55.3053 28.1758 63.305 21.1136 72.9953 17.3526L70.4625 10.8268ZM44.2668 33.9421C38.6001 44.5021 36.9405 56.7231 39.5923 68.3921L46.4182 66.8409C44.1415 56.8221 45.5649 46.3273 50.4348 37.252L44.2668 33.9421ZM42.6959 64.1302C33.6988 64.9286 25.3207 69.0254 19.2107 75.6273L24.3481 80.3819C29.2712 75.0626 36.0352 71.7487 43.3146 71.1028L42.6959 64.1302ZM19.2107 75.6273C13.0997 82.2302 9.70055 90.8615 9.6915 99.8268L16.6915 99.8339C16.6988 92.639 19.4261 85.7002 24.3481 80.3819L19.2107 75.6273ZM9.6915 99.8304C9.6915 109.358 13.5192 118.487 20.3198 125.212L25.2418 120.235C19.7625 114.816 16.6915 107.476 16.6915 99.8304H9.6915ZM20.3198 125.212C27.119 131.936 36.3325 135.706 45.9314 135.706V128.706C38.1639 128.706 30.7224 125.654 25.2418 120.235L20.3198 125.212ZM45.9314 135.706H97V128.706H45.9314V135.706ZM100.5 132.206V128.159H93.5V132.206H100.5ZM97 124.659H45.9314V131.659H97V124.659ZM45.9422 124.659C39.469 124.639 33.2591 122.155 28.5988 117.735L23.7812 122.813C29.7444 128.47 37.6728 131.633 45.9205 131.659L45.9422 124.659ZM28.5988 117.735C23.9396 113.315 21.1869 107.299 20.8991 100.938L13.9062 101.255C14.2764 109.437 17.8169 117.155 23.7812 122.813L28.5988 117.735ZM20.8991 100.938C20.6113 94.5776 22.8098 88.345 27.0491 83.5339L21.7971 78.9061C16.3655 85.0702 13.5361 93.0729 13.9062 101.255L20.8991 100.938ZM27.0491 83.5339C31.2896 78.7215 37.2483 75.7 43.6935 75.1083L43.0536 68.1376C34.8408 68.8915 27.2276 72.7432 21.7971 78.9061L27.0491 83.5339ZM43.676 75.1099L48.3415 74.7052L47.7365 67.7314L43.0711 68.1361L43.676 75.1099ZM51.4524 70.4444L50.4292 65.932L43.6025 67.4799L44.6256 71.9922L51.4524 70.4444ZM50.4303 65.9366C48.387 56.8686 49.6877 47.376 54.1016 39.1689L47.9366 35.8533C42.7256 45.5425 41.1867 56.7586 43.6015 67.4753L50.4303 65.9366ZM54.1016 39.1689C58.516 30.9609 65.7571 24.5741 74.5266 21.1708L71.994 14.645C61.6824 18.6467 53.1472 26.165 47.9366 35.8533L54.1016 39.1689ZM74.5266 21.1708C83.2967 17.7673 93.0103 17.5755 101.912 20.6305L104.184 14.0095C93.7205 10.4184 82.3049 10.6436 71.994 14.645L74.5266 21.1708ZM101.912 20.6305C110.812 23.6852 118.306 29.7818 123.049 37.8101L129.076 34.2497C123.479 24.7757 114.648 17.6009 104.184 14.0095L101.912 20.6305ZM123.045 37.8045L124.867 40.9004L130.9 37.3512L129.079 34.2553L123.045 37.8045ZM129.251 42.3474L132.587 40.9309L129.851 34.4879L126.515 35.9043L129.251 42.3474ZM132.588 40.9303C137.04 39.0376 141.899 38.2669 146.729 38.6891L147.339 31.7157C141.368 31.1938 135.359 32.146 129.849 34.4884L132.588 40.9303ZM146.729 38.6891C151.559 39.1113 156.204 40.7127 160.249 43.3467L164.069 37.4811C159.058 34.2177 153.309 32.2376 147.339 31.7157L146.729 38.6891ZM160.249 43.3467C162.743 44.9709 164.959 46.956 166.83 49.2259L172.232 44.7741C169.909 41.9555 167.159 39.4935 164.069 37.4811L160.249 43.3467Z" fill="white"/>
<mask id="path-5-inside-1" fill="white">
<rect x="113.662" y="60.2181" width="110.463" height="75.7021" rx="5"/>
</mask>
<rect x="113.662" y="60.2181" width="110.463" height="75.7021" rx="5" stroke="white" stroke-width="14" mask="url(#path-5-inside-1)"/>
<path d="M133.521 80.7055C133.116 80.33 133.116 79.7212 133.521 79.3457L135.203 77.7863C135.608 77.4108 136.264 77.4108 136.669 77.7863L148 88.2907L144.851 91.2099L133.521 80.7055Z" fill="white"/>
<path d="M136.67 98.7868C136.264 99.1623 135.608 99.1623 135.203 98.7868L133.521 97.2273C133.116 96.8519 133.116 96.2431 133.521 95.8676L144.851 85.3632L148 88.2824L136.67 98.7868Z" fill="white"/>
<rect x="150" y="95" width="17" height="4" rx="1" fill="white"/>
</g>
<defs>
<clipPath id="clip0">
<rect width="596.426" height="146" fill="white"/>
</clipPath>
</defs>
</svg>
