<svg width="597" height="146" viewBox="0 0 597 146" fill="none" xmlns="http://www.w3.org/2000/svg">
<g clip-path="url(#clip0)">
<path d="M259.383 -1.55319H254.723V144.447H259.383V-1.55319Z" fill="white"/>
<path d="M306.458 92.4628C304.621 92.4628 303.261 92.4288 302.376 92.3608L297.988 107.158C296.355 107.566 294.076 107.77 291.151 107.77C287.885 107.77 285.232 107.396 283.191 106.648L282.681 105.831L305.132 37.3562C307.785 36.948 310.88 36.7439 314.418 36.7439C318.432 36.7439 321.63 36.982 324.011 37.4582L346.054 106.035C343.672 107.328 340.985 107.974 337.992 107.974C334.454 107.974 331.971 107.362 330.542 106.137C329.113 104.913 327.889 102.566 326.868 99.0961L324.929 92.3608C324.045 92.4288 322.718 92.4628 320.949 92.4628H306.458ZM306.152 79.6046L310.234 79.5026H317.684C318.024 79.5026 318.619 79.5196 319.47 79.5536C320.32 79.5876 320.949 79.6046 321.358 79.6046L319.623 73.2776C317.99 67.5628 316.119 60.5554 314.01 52.2554H313.398C312.853 55.1808 311.221 61.678 308.499 71.7468L306.152 79.6046ZM404.63 58.8886C404.63 61.1337 404.29 63.2597 403.609 65.2667C402.929 67.2737 402.028 69.0765 400.905 70.6753C399.783 72.2741 398.456 73.6688 396.925 74.8593C395.394 76.0499 393.813 76.9514 392.18 77.5636C395.718 78.8563 398.337 81.9858 400.038 86.9522L403.099 95.6264C404.256 99.028 405.956 101.545 408.202 103.178C407.181 104.539 405.65 105.678 403.609 106.597C401.568 107.515 399.323 107.974 396.874 107.974C394.425 107.974 392.52 107.277 391.159 105.882C389.799 104.488 388.54 102.055 387.384 98.5858L383.71 87.8706C382.961 85.8296 381.958 84.2649 380.699 83.1764C379.441 82.0878 377.553 81.5436 375.036 81.5436H370.852V107.056C368.674 107.464 365.953 107.668 362.688 107.668C359.422 107.668 356.735 107.464 354.626 107.056V37.8664L355.34 37.1521C361.259 37.016 366.242 36.914 370.29 36.8459C374.338 36.7779 377.519 36.7439 379.832 36.7439C383.574 36.7439 386.975 37.2031 390.037 38.1216C393.098 39.04 395.701 40.4177 397.844 42.2546C399.987 44.0915 401.653 46.4046 402.844 49.1939C404.035 51.9833 404.63 55.2148 404.63 58.8886ZM370.852 48.9898V68.9915C373.913 68.9915 376.532 68.9405 378.709 68.8384C380.886 68.7364 382.638 68.3282 383.965 67.6138C385.291 66.8995 386.295 65.896 386.975 64.6034C387.656 63.3108 387.996 61.4398 387.996 58.9907C387.996 52.3915 384.798 49.0919 378.403 49.0919H374.168C374.168 49.0919 373.063 49.0579 370.852 48.9898ZM452.491 65.1136V63.889C452.491 53.8202 448.749 48.7857 441.266 48.7857C436.98 48.7857 433.884 50.7417 431.979 54.6536C430.074 58.5655 429.122 64.3312 429.122 71.9509C429.122 79.5026 430.312 85.1153 432.693 88.7891C435.075 92.4629 438.544 94.2997 443.102 94.2997C445.484 94.2997 448.12 93.7385 451.011 92.6159C453.903 91.4934 457.049 89.7075 460.451 87.2583C462.152 88.4149 463.733 89.9967 465.196 92.0036C466.659 94.0106 467.56 95.9325 467.9 97.7694C466.336 99.2661 464.516 100.678 462.441 102.004C460.366 103.331 458.121 104.471 455.706 105.423C453.29 106.376 450.773 107.141 448.154 107.719C445.535 108.298 442.898 108.587 440.245 108.587C435.007 108.587 430.584 107.583 426.979 105.576C423.373 103.569 420.465 100.899 418.253 97.5653C416.042 94.2317 414.444 90.3879 413.457 86.0337C412.471 81.6796 411.977 77.1554 411.977 72.4612C411.977 66.3382 412.743 60.9806 414.274 56.3884C415.804 51.7962 417.879 47.9693 420.499 44.9078C423.118 41.8464 426.196 39.5503 429.734 38.0195C433.272 36.4888 437.048 35.7234 441.061 35.7234C445.143 35.7234 448.851 36.2677 452.185 37.3562C455.518 38.4447 458.359 39.9414 460.706 41.8464C463.053 43.7513 464.856 45.9964 466.115 48.5816C467.373 51.1669 468.003 53.9562 468.003 56.9497C468.003 63.0046 464.907 66.0321 458.716 66.0321C456.879 66.0321 454.804 65.7259 452.491 65.1136ZM532.396 37.3562V81.3395C532.396 90.0477 530.015 96.7659 525.252 101.494C520.49 106.223 513.687 108.587 504.842 108.587C495.998 108.587 489.178 106.223 484.381 101.494C479.585 96.7659 477.187 90.0477 477.187 81.3395V37.3562L477.901 36.6418H483.922C490.385 36.6418 493.617 40.1115 493.617 47.0509V81.5436C493.617 86.3059 494.467 89.8436 496.168 92.1567C497.869 94.4698 500.76 95.6264 504.842 95.6264C508.924 95.6264 511.816 94.4698 513.517 92.1567C515.217 89.8436 516.068 86.3059 516.068 81.5436V37.3562C518.177 36.948 520.898 36.7439 524.232 36.7439C527.497 36.7439 530.219 36.948 532.396 37.3562ZM540.662 101.035C540.866 98.7899 541.563 96.5448 542.754 94.2997C543.944 92.0547 545.356 90.2178 546.989 88.7891C554.268 93.2112 561.174 95.4223 567.705 95.4223C570.562 95.4223 572.654 94.776 573.981 93.4833C575.307 92.1907 575.971 90.5919 575.971 88.687C575.971 85.4895 573.828 82.9723 569.542 81.1354L557.5 76.0329C552.806 73.9239 549.2 71.3897 546.683 68.4302C544.165 65.4708 542.907 61.712 542.907 57.1538C542.907 54.0243 543.536 51.1669 544.795 48.5816C546.053 45.9964 547.822 43.7513 550.101 41.8464C552.38 39.9414 555.085 38.4617 558.214 37.4072C561.344 36.3527 564.813 35.8255 568.623 35.8255C576.243 35.8255 583.931 37.7644 591.686 41.6423C591.346 46.8808 589.509 50.9628 586.176 53.8882C579.236 50.5546 573.113 48.8878 567.807 48.8878C565.086 48.8878 563.045 49.5001 561.684 50.7247C560.323 51.9493 559.643 53.3439 559.643 54.9087C559.643 57.562 561.65 59.705 565.664 61.3378L577.91 66.5423C583.08 68.7194 586.941 71.5087 589.492 74.9104C592.044 78.312 593.319 82.2579 593.319 86.7481C593.319 89.9456 592.741 92.871 591.584 95.5243C590.428 98.1776 588.71 100.474 586.431 102.413C584.152 104.352 581.311 105.865 577.91 106.954C574.508 108.042 570.528 108.587 565.97 108.587C557.126 108.587 548.69 106.069 540.662 101.035Z" fill="white"/>
<path fill-rule="evenodd" clip-rule="evenodd" d="M167.739 45H173.141C170.691 41.909 167.744 39.2192 164.403 37.0448C159.31 33.7293 153.464 31.716 147.39 31.1857C141.316 30.6554 135.204 31.6246 129.602 34.0064C123.95 24.4 115.007 17.1111 104.392 13.458C93.7776 9.805 82.1912 10.0291 71.7289 14.0897C61.2666 18.1503 52.6192 25.7794 47.3509 35.5971C42.0825 45.4147 40.541 56.7726 43.0053 67.6165C34.867 68.3386 27.2959 72.044 21.7794 78.0046C16.2629 83.9652 13.1997 91.7503 13.1915 99.8304C13.1915 108.417 16.6409 116.652 22.7808 122.723C28.9207 128.795 37.2482 132.206 45.9314 132.206H97V128.159H45.9314C38.5709 128.136 31.5017 125.313 26.19 120.274C20.8783 115.235 17.7317 108.368 17.4027 101.097C17.0737 93.8252 19.5877 86.7076 24.4232 81.22C29.2586 75.7323 36.0446 72.2958 43.3736 71.623L48.039 71.2183L47.0159 66.7059C44.7869 56.8136 46.2067 46.4592 51.0192 37.5111C55.8316 28.5629 63.7198 21.6104 73.2603 17.9079C82.8009 14.2055 93.3654 13.997 103.048 17.32C112.73 20.643 120.893 27.2788 126.062 36.0299L127.883 39.1258L131.219 37.7094C136.199 35.5918 141.634 34.7303 147.034 35.2024C152.434 35.6744 157.631 37.4652 162.159 40.4139C164.193 41.7385 166.063 43.2781 167.739 45Z" fill="white"/>
<path d="M167.739 45L165.231 47.4413L166.261 48.5H167.739V45ZM173.141 45V48.5H180.381L175.884 42.8261L173.141 45ZM164.403 37.0448L166.313 34.1116V34.1116L164.403 37.0448ZM147.39 31.1857L147.695 27.699L147.39 31.1857ZM129.602 34.0064L126.586 35.7814L128.144 38.4297L130.972 37.2274L129.602 34.0064ZM104.392 13.458L105.531 10.1485L104.392 13.458ZM71.7289 14.0897L72.9953 17.3526L71.7289 14.0897ZM47.3509 35.5971L44.2668 33.9421V33.9421L47.3509 35.5971ZM43.0053 67.6165L43.3146 71.1028L47.3063 70.7486L46.4183 66.8409L43.0053 67.6165ZM21.7794 78.0046L19.2107 75.6273L19.2107 75.6273L21.7794 78.0046ZM13.1915 99.8304L9.69153 99.8268V99.8304H13.1915ZM22.7808 122.723L20.3198 125.212L22.7808 122.723ZM97 132.206V135.706H100.5V132.206H97ZM97 128.159H100.5V124.659H97V128.159ZM45.9314 128.159L45.9205 131.659H45.9314V128.159ZM26.19 120.274L28.5988 117.735L28.5988 117.735L26.19 120.274ZM17.4027 101.097L20.8991 100.938L17.4027 101.097ZM43.3736 71.623L43.0711 68.1361L43.0624 68.1368L43.0537 68.1376L43.3736 71.623ZM48.039 71.2183L48.3415 74.7052L52.3398 74.3584L51.4524 70.4444L48.039 71.2183ZM47.0159 66.7059L43.6015 67.4753L43.6026 67.4799L47.0159 66.7059ZM51.0192 37.5111L47.9367 35.8533L51.0192 37.5111ZM73.2603 17.9079L71.9941 14.645V14.645L73.2603 17.9079ZM103.048 17.32L104.184 14.0095L103.048 17.32ZM126.062 36.0299L129.079 34.2553L129.076 34.2497L126.062 36.0299ZM127.883 39.1258L124.867 40.9004L126.424 43.5481L129.252 42.3474L127.883 39.1258ZM131.219 37.7094L132.587 40.9309L132.588 40.9303L131.219 37.7094ZM162.159 40.4139L160.249 43.3467L162.159 40.4139ZM167.739 48.5H173.141V41.5H167.739V48.5ZM175.884 42.8261C173.199 39.4385 169.97 36.4923 166.313 34.1116L162.494 39.9781C165.517 41.946 168.183 44.3794 170.398 47.1739L175.884 42.8261ZM166.313 34.1116C160.737 30.4815 154.339 28.2791 147.695 27.699L147.086 34.6724C152.59 35.1529 157.884 36.977 162.494 39.9781L166.313 34.1116ZM147.695 27.699C141.05 27.1189 134.363 28.1789 128.233 30.7855L130.972 37.2274C136.045 35.0703 141.582 34.1919 147.086 34.6724L147.695 27.699ZM132.619 32.2315C126.54 21.9005 116.929 14.0709 105.531 10.1485L103.254 16.7675C113.086 20.1513 121.36 26.8995 126.586 35.7814L132.619 32.2315ZM105.531 10.1485C94.1347 6.22643 81.6961 6.46684 70.4625 10.8268L72.9953 17.3526C82.6863 13.5913 93.4205 13.3836 103.254 16.7675L105.531 10.1485ZM70.4625 10.8268C59.2282 15.1871 49.9331 23.3831 44.2668 33.9421L50.4349 37.252C55.3054 28.1758 63.305 21.1136 72.9953 17.3526L70.4625 10.8268ZM44.2668 33.9421C38.6001 44.5021 36.9406 56.7231 39.5923 68.3921L46.4183 66.8409C44.1415 56.8221 45.5649 46.3273 50.4349 37.252L44.2668 33.9421ZM42.6959 64.1302C33.6988 64.9286 25.3207 69.0254 19.2107 75.6273L24.3481 80.3819C29.2712 75.0626 36.0352 71.7487 43.3146 71.1028L42.6959 64.1302ZM19.2107 75.6273C13.0997 82.2302 9.70058 90.8615 9.69153 99.8268L16.6915 99.8339C16.6988 92.639 19.4261 85.7002 24.3481 80.3819L19.2107 75.6273ZM9.69153 99.8304C9.69153 109.358 13.5193 118.487 20.3198 125.212L25.2418 120.235C19.7625 114.816 16.6915 107.476 16.6915 99.8304H9.69153ZM20.3198 125.212C27.119 131.936 36.3325 135.706 45.9314 135.706V128.706C38.1639 128.706 30.7224 125.654 25.2418 120.235L20.3198 125.212ZM45.9314 135.706H97V128.706H45.9314V135.706ZM100.5 132.206V128.159H93.5V132.206H100.5ZM97 124.659H45.9314V131.659H97V124.659ZM45.9423 124.659C39.469 124.639 33.2591 122.155 28.5988 117.735L23.7813 122.813C29.7444 128.47 37.6728 131.633 45.9205 131.659L45.9423 124.659ZM28.5988 117.735C23.9397 113.315 21.1869 107.299 20.8991 100.938L13.9063 101.255C14.2764 109.437 17.817 117.155 23.7813 122.813L28.5988 117.735ZM20.8991 100.938C20.6113 94.5776 22.8098 88.345 27.0491 83.5339L21.7972 78.9061C16.3656 85.0702 13.5361 93.0729 13.9063 101.255L20.8991 100.938ZM27.0491 83.5339C31.2896 78.7215 37.2484 75.7 43.6935 75.1083L43.0537 68.1376C34.8408 68.8915 27.2277 72.7432 21.7972 78.9061L27.0491 83.5339ZM43.6761 75.1099L48.3415 74.7052L47.7366 67.7314L43.0711 68.1361L43.6761 75.1099ZM51.4524 70.4444L50.4293 65.932L43.6026 67.4799L44.6257 71.9922L51.4524 70.4444ZM50.4303 65.9366C48.387 56.8686 49.6877 47.376 54.1016 39.1689L47.9367 35.8533C42.7257 45.5424 41.1867 56.7586 43.6015 67.4753L50.4303 65.9366ZM54.1016 39.1689C58.5161 30.9609 65.7571 24.5741 74.5266 21.1708L71.9941 14.645C61.6825 18.6467 53.1472 26.165 47.9367 35.8533L54.1016 39.1689ZM74.5266 21.1708C83.2968 17.7673 93.0103 17.5755 101.912 20.6305L104.184 14.0095C93.7205 10.4184 82.3049 10.6436 71.9941 14.645L74.5266 21.1708ZM101.912 20.6305C110.812 23.6852 118.306 29.7818 123.049 37.8101L129.076 34.2497C123.479 24.7757 114.648 17.6009 104.184 14.0095L101.912 20.6305ZM123.045 37.8045L124.867 40.9004L130.9 37.3512L129.079 34.2553L123.045 37.8045ZM129.252 42.3474L132.587 40.9309L129.851 34.4879L126.515 35.9043L129.252 42.3474ZM132.588 40.9303C137.04 39.0376 141.899 38.2669 146.729 38.6891L147.339 31.7157C141.368 31.1938 135.359 32.146 129.849 34.4884L132.588 40.9303ZM146.729 38.6891C151.559 39.1113 156.204 40.7127 160.249 43.3467L164.069 37.4811C159.058 34.2177 153.309 32.2376 147.339 31.7157L146.729 38.6891ZM160.249 43.3467C162.065 44.5299 163.735 45.9045 165.231 47.4413L170.247 42.5587C168.39 40.6516 166.32 38.9471 164.069 37.4811L160.249 43.3467Z" fill="white"/>
<mask id="path-5-inside-1" fill="white">
<path fill-rule="evenodd" clip-rule="evenodd" d="M118.662 60.2181C115.9 60.2181 113.662 62.4567 113.662 65.2181V130.92C113.662 133.682 115.9 135.92 118.662 135.92H219.125C221.886 135.92 224.125 133.682 224.125 130.92V65.2181C224.125 62.4567 221.886 60.2181 219.125 60.2181H118.662ZM131.521 77.3457C131.116 77.7212 131.116 78.33 131.521 78.7055L139.698 86.2866L131.521 93.8676C131.116 94.2431 131.116 94.8519 131.521 95.2273L133.203 96.7868C133.608 97.1623 134.265 97.1623 134.67 96.7868L142.847 89.2058L142.851 89.2099L146 86.2907L145.996 86.2866L146 86.2824L142.851 83.3632L142.847 83.3674L134.669 75.7863C134.264 75.4108 133.608 75.4108 133.203 75.7863L131.521 77.3457ZM149 93C148.448 93 148 93.4477 148 94V96C148 96.5523 148.448 97 149 97H164C164.552 97 165 96.5523 165 96V94C165 93.4477 164.552 93 164 93H149Z"/>
</mask>
<path fill-rule="evenodd" clip-rule="evenodd" d="M118.662 60.2181C115.9 60.2181 113.662 62.4567 113.662 65.2181V130.92C113.662 133.682 115.9 135.92 118.662 135.92H219.125C221.886 135.92 224.125 133.682 224.125 130.92V65.2181C224.125 62.4567 221.886 60.2181 219.125 60.2181H118.662ZM131.521 77.3457C131.116 77.7212 131.116 78.33 131.521 78.7055L139.698 86.2866L131.521 93.8676C131.116 94.2431 131.116 94.8519 131.521 95.2273L133.203 96.7868C133.608 97.1623 134.265 97.1623 134.67 96.7868L142.847 89.2058L142.851 89.2099L146 86.2907L145.996 86.2866L146 86.2824L142.851 83.3632L142.847 83.3674L134.669 75.7863C134.264 75.4108 133.608 75.4108 133.203 75.7863L131.521 77.3457ZM149 93C148.448 93 148 93.4477 148 94V96C148 96.5523 148.448 97 149 97H164C164.552 97 165 96.5523 165 96V94C165 93.4477 164.552 93 164 93H149Z" fill="white"/>
<path d="M131.521 78.7055L136.28 73.5721L136.28 73.5721L131.521 78.7055ZM131.521 77.3457L126.762 72.2124H126.762L131.521 77.3457ZM139.698 86.2866L144.457 91.42L149.994 86.2866L144.457 81.1532L139.698 86.2866ZM131.521 93.8676L126.762 88.7342L126.762 88.7343L131.521 93.8676ZM131.521 95.2273L136.28 90.094L136.28 90.094L131.521 95.2273ZM133.203 96.7868L128.444 101.92L128.444 101.92L133.203 96.7868ZM134.67 96.7868L139.429 101.92L139.429 101.92L134.67 96.7868ZM142.847 89.2058L147.606 84.0724L142.847 79.6604L138.088 84.0724L142.847 89.2058ZM142.851 89.2099L138.092 94.3433L142.851 98.7552L147.61 94.3433L142.851 89.2099ZM146 86.2907L150.759 91.4241L156.295 86.2917L150.76 81.1583L146 86.2907ZM145.996 86.2866L141.236 81.154L135.701 86.2864L141.236 91.419L145.996 86.2866ZM146 86.2824L150.76 91.415L156.295 86.2816L150.759 81.149L146 86.2824ZM142.851 83.3632L147.61 78.2298L142.851 73.8171L138.092 78.2306L142.851 83.3632ZM142.847 83.3674L138.088 88.5008L142.848 92.9135L147.607 88.5L142.847 83.3674ZM134.669 75.7863L139.428 70.6529V70.6529L134.669 75.7863ZM133.203 75.7863L137.962 80.9196L137.962 80.9196L133.203 75.7863ZM120.662 65.2181C120.662 66.3226 119.766 67.2181 118.662 67.2181V53.2181C112.034 53.2181 106.662 58.5907 106.662 65.2181H120.662ZM120.662 130.92V65.2181H106.662V130.92H120.662ZM118.662 128.92C119.766 128.92 120.662 129.816 120.662 130.92H106.662C106.662 137.548 112.034 142.92 118.662 142.92V128.92ZM219.125 128.92H118.662V142.92H219.125V128.92ZM217.125 130.92C217.125 129.816 218.021 128.92 219.125 128.92V142.92C225.752 142.92 231.125 137.548 231.125 130.92H217.125ZM217.125 65.2181V130.92H231.125V65.2181H217.125ZM219.125 67.2181C218.021 67.2181 217.125 66.3226 217.125 65.2181H231.125C231.125 58.5907 225.752 53.2181 219.125 53.2181V67.2181ZM118.662 67.2181H219.125V53.2181H118.662V67.2181ZM136.28 73.5721C138.863 75.9667 138.863 80.0845 136.28 82.4791L126.762 72.2124C123.369 75.3579 123.369 80.6933 126.762 83.8388L136.28 73.5721ZM144.457 81.1532L136.28 73.5721L126.762 83.8388L134.939 91.42L144.457 81.1532ZM136.28 99.001L144.457 91.42L134.939 81.1532L126.762 88.7342L136.28 99.001ZM136.28 90.094C138.863 92.4886 138.863 96.6064 136.28 99.001L126.762 88.7343C123.369 91.8798 123.369 97.2152 126.762 100.361L136.28 90.094ZM137.962 91.6535L136.28 90.094L126.762 100.361L128.444 101.92L137.962 91.6535ZM129.911 91.6534C132.19 89.5401 135.682 89.5401 137.962 91.6534L128.444 101.92C131.533 104.785 136.339 104.784 139.429 101.92L129.911 91.6534ZM138.088 84.0724L129.911 91.6535L139.429 101.92L147.606 94.3392L138.088 84.0724ZM147.61 84.0765L147.606 84.0724L138.088 94.3392L138.092 94.3433L147.61 84.0765ZM141.241 81.1573L138.092 84.0765L147.61 94.3433L150.759 91.4241L141.241 81.1573ZM141.236 91.419L141.24 91.4231L150.76 81.1583L150.756 81.1542L141.236 91.419ZM141.24 81.1498L141.236 81.154L150.755 91.4192L150.76 91.415L141.24 81.1498ZM138.092 88.4965L141.241 91.4157L150.759 81.149L147.61 78.2298L138.092 88.4965ZM147.607 88.5L147.611 88.4958L138.092 78.2306L138.087 78.2348L147.607 88.5ZM129.91 80.9196L138.088 88.5008L147.606 78.234L139.428 70.6529L129.91 80.9196ZM137.962 80.9196C135.682 83.033 132.19 83.033 129.91 80.9196L139.428 70.6529C136.339 67.7886 131.533 67.7886 128.444 70.6529L137.962 80.9196ZM136.28 82.4791L137.962 80.9196L128.444 70.6529L126.762 72.2124L136.28 82.4791ZM155 94C155 97.3137 152.314 100 149 100V86C144.582 86 141 89.5817 141 94H155ZM155 96V94H141V96H155ZM149 90C152.314 90 155 92.6863 155 96H141C141 100.418 144.582 104 149 104V90ZM164 90H149V104H164V90ZM158 96C158 92.6863 160.686 90 164 90V104C168.418 104 172 100.418 172 96H158ZM158 94V96H172V94H158ZM164 100C160.686 100 158 97.3137 158 94H172C172 89.5817 168.418 86 164 86V100ZM149 100H164V86H149V100Z" fill="white" mask="url(#path-5-inside-1)"/>
</g>
<defs>
<clipPath id="clip0">
<rect width="596.426" height="146" fill="white"/>
</clipPath>
</defs>
</svg>
