<svg width="597" height="146" viewBox="0 0 597 146" fill="none" xmlns="http://www.w3.org/2000/svg">
<g clip-path="url(#clip0)">
<path d="M259.383 -1.55319H254.723V144.447H259.383V-1.55319Z" fill="#3B4159"/>
<path d="M306.458 92.4628C304.621 92.4628 303.261 92.4288 302.376 92.3608L297.988 107.158C296.355 107.566 294.076 107.77 291.151 107.77C287.885 107.77 285.232 107.396 283.191 106.648L282.681 105.831L305.132 37.3562C307.785 36.948 310.88 36.7439 314.418 36.7439C318.432 36.7439 321.63 36.982 324.011 37.4582L346.054 106.035C343.672 107.328 340.985 107.974 337.992 107.974C334.454 107.974 331.971 107.362 330.542 106.137C329.113 104.913 327.889 102.566 326.868 99.0961L324.929 92.3608C324.045 92.4288 322.718 92.4628 320.949 92.4628H306.458V92.4628ZM306.152 79.6046L310.234 79.5026H317.684C318.024 79.5026 318.619 79.5196 319.47 79.5536C320.32 79.5876 320.949 79.6046 321.358 79.6046L319.623 73.2776C317.99 67.5628 316.119 60.5554 314.01 52.2554H313.398C312.853 55.1808 311.221 61.678 308.499 71.7468L306.152 79.6046ZM404.63 58.8886C404.63 61.1337 404.29 63.2597 403.609 65.2667C402.929 67.2737 402.028 69.0765 400.905 70.6753C399.783 72.2741 398.456 73.6688 396.925 74.8593C395.394 76.0499 393.813 76.9514 392.18 77.5636C395.718 78.8563 398.337 81.9858 400.038 86.9522L403.099 95.6264C404.256 99.028 405.956 101.545 408.202 103.178C407.181 104.539 405.65 105.678 403.609 106.597C401.568 107.515 399.323 107.974 396.874 107.974C394.425 107.974 392.52 107.277 391.159 105.882C389.799 104.488 388.54 102.055 387.384 98.5858L383.71 87.8706C382.961 85.8296 381.958 84.2649 380.699 83.1764C379.441 82.0878 377.553 81.5436 375.036 81.5436H370.852V107.056C368.674 107.464 365.953 107.668 362.688 107.668C359.422 107.668 356.735 107.464 354.626 107.056V37.8664L355.34 37.1521C361.259 37.016 366.242 36.914 370.29 36.8459C374.338 36.7779 377.519 36.7439 379.832 36.7439C383.574 36.7439 386.975 37.2031 390.037 38.1216C393.098 39.04 395.701 40.4177 397.844 42.2546C399.987 44.0915 401.653 46.4046 402.844 49.1939C404.035 51.9833 404.63 55.2148 404.63 58.8886V58.8886ZM370.852 48.9898V68.9915C373.913 68.9915 376.532 68.9405 378.709 68.8384C380.886 68.7364 382.638 68.3282 383.965 67.6138C385.292 66.8995 386.295 65.896 386.975 64.6034C387.656 63.3108 387.996 61.4398 387.996 58.9907C387.996 52.3915 384.798 49.0919 378.403 49.0919H374.168C374.168 49.0919 373.063 49.0579 370.852 48.9898V48.9898ZM452.491 65.1136V63.889C452.491 53.8202 448.749 48.7857 441.266 48.7857C436.98 48.7857 433.884 50.7417 431.979 54.6536C430.074 58.5655 429.122 64.3312 429.122 71.9509C429.122 79.5026 430.312 85.1153 432.693 88.7891C435.075 92.4629 438.544 94.2997 443.102 94.2997C445.484 94.2997 448.12 93.7385 451.011 92.6159C453.903 91.4934 457.049 89.7075 460.451 87.2583C462.152 88.4149 463.733 89.9967 465.196 92.0036C466.659 94.0106 467.56 95.9325 467.9 97.7694C466.336 99.2661 464.516 100.678 462.441 102.004C460.366 103.331 458.121 104.471 455.706 105.423C453.29 106.376 450.773 107.141 448.154 107.719C445.535 108.298 442.898 108.587 440.245 108.587C435.007 108.587 430.584 107.583 426.979 105.576C423.373 103.569 420.465 100.899 418.253 97.5653C416.042 94.2317 414.444 90.3879 413.457 86.0337C412.471 81.6796 411.977 77.1554 411.977 72.4612C411.977 66.3382 412.743 60.9806 414.274 56.3884C415.804 51.7962 417.879 47.9693 420.499 44.9078C423.118 41.8464 426.196 39.5503 429.734 38.0195C433.272 36.4888 437.048 35.7234 441.061 35.7234C445.143 35.7234 448.851 36.2677 452.185 37.3562C455.518 38.4447 458.359 39.9414 460.706 41.8464C463.053 43.7513 464.856 45.9964 466.115 48.5816C467.373 51.1669 468.003 53.9562 468.003 56.9497C468.003 63.0046 464.907 66.0321 458.716 66.0321C456.879 66.0321 454.804 65.7259 452.491 65.1136V65.1136ZM532.396 37.3562V81.3395C532.396 90.0477 530.015 96.7659 525.252 101.494C520.49 106.223 513.687 108.587 504.842 108.587C495.998 108.587 489.178 106.223 484.381 101.494C479.585 96.7659 477.187 90.0477 477.187 81.3395V37.3562L477.901 36.6418H483.922C490.385 36.6418 493.617 40.1115 493.617 47.0509V81.5436C493.617 86.3059 494.467 89.8436 496.168 92.1567C497.869 94.4698 500.76 95.6264 504.842 95.6264C508.924 95.6264 511.816 94.4698 513.517 92.1567C515.217 89.8436 516.068 86.3059 516.068 81.5436V37.3562C518.177 36.948 520.898 36.7439 524.232 36.7439C527.497 36.7439 530.219 36.948 532.396 37.3562V37.3562ZM540.662 101.035C540.866 98.7899 541.563 96.5448 542.754 94.2997C543.944 92.0547 545.356 90.2178 546.989 88.7891C554.268 93.2112 561.174 95.4223 567.705 95.4223C570.562 95.4223 572.654 94.776 573.981 93.4833C575.307 92.1907 575.971 90.5919 575.971 88.687C575.971 85.4895 573.828 82.9723 569.542 81.1354L557.5 76.0329C552.806 73.9239 549.2 71.3897 546.683 68.4302C544.165 65.4708 542.907 61.712 542.907 57.1538C542.907 54.0243 543.536 51.1669 544.795 48.5816C546.053 45.9964 547.822 43.7513 550.101 41.8464C552.38 39.9414 555.085 38.4617 558.214 37.4072C561.344 36.3527 564.813 35.8255 568.623 35.8255C576.243 35.8255 583.931 37.7644 591.686 41.6423C591.346 46.8808 589.509 50.9628 586.176 53.8882C579.236 50.5546 573.113 48.8878 567.807 48.8878C565.086 48.8878 563.045 49.5001 561.684 50.7247C560.323 51.9493 559.643 53.3439 559.643 54.9087C559.643 57.562 561.65 59.705 565.664 61.3378L577.91 66.5423C583.08 68.7194 586.941 71.5087 589.492 74.9104C592.044 78.312 593.319 82.2579 593.319 86.7481C593.319 89.9456 592.741 92.871 591.584 95.5243C590.428 98.1776 588.71 100.474 586.431 102.413C584.152 104.352 581.311 105.865 577.91 106.954C574.508 108.042 570.528 108.587 565.97 108.587C557.126 108.587 548.69 106.069 540.662 101.035V101.035Z" fill="#3B4159"/>
<path fill-rule="evenodd" clip-rule="evenodd" d="M171.532 49.7021H176.305C173.424 44.6022 169.342 40.26 164.403 37.0448C159.31 33.7293 153.464 31.716 147.39 31.1857C141.316 30.6554 135.204 31.6246 129.602 34.0064C123.95 24.4 115.007 17.1111 104.392 13.458C93.7776 9.805 82.1912 10.0291 71.7289 14.0897C61.2666 18.1503 52.6192 25.7794 47.3508 35.5971C42.0825 45.4147 40.541 56.7726 43.0052 67.6165C34.867 68.3386 27.2959 72.044 21.7794 78.0046C16.2629 83.9652 13.1997 91.7503 13.1915 99.8304C13.1915 108.417 16.6409 116.652 22.7808 122.723C28.9207 128.795 37.2482 132.206 45.9314 132.206H103.472V128.159H45.9314C38.5709 128.136 31.5017 125.313 26.19 120.274C20.8783 115.235 17.7316 108.368 17.4027 101.097C17.0737 93.8252 19.5877 86.7076 24.4231 81.22C29.2586 75.7323 36.0446 72.2958 43.3736 71.623L48.039 71.2183L47.0159 66.7059C44.7869 56.8136 46.2067 46.4592 51.0191 37.5111C55.8316 28.5629 63.7198 21.6104 73.2603 17.9079C82.8008 14.2055 93.3654 13.997 103.048 17.32C112.73 20.643 120.893 27.2788 126.062 36.0299L127.883 39.1258L131.219 37.7094C136.199 35.5918 141.634 34.7303 147.034 35.2024C152.434 35.6744 157.631 37.4652 162.159 40.4139C165.9 42.8502 169.087 46.0141 171.532 49.7021Z" fill="#3B4159"/>
<path d="M171.532 49.7021L170.281 50.5309L170.726 51.2021H171.532V49.7021ZM176.305 49.7021V51.2021H178.875L177.611 48.9643L176.305 49.7021ZM164.403 37.0448L165.222 35.7877L165.222 35.7877L164.403 37.0448ZM147.39 31.1857L147.521 29.6914L147.521 29.6914L147.39 31.1857ZM129.602 34.0064L128.309 34.7671L128.977 35.9021L130.189 35.3868L129.602 34.0064ZM104.392 13.458L104.881 12.0397L104.392 13.458ZM71.7289 14.0897L72.2716 15.4881L71.7289 14.0897ZM47.3508 35.5971L46.0291 34.8878L46.0291 34.8878L47.3508 35.5971ZM43.0052 67.6165L43.1378 69.1106L44.8485 68.9588L44.468 67.2841L43.0052 67.6165ZM21.7794 78.0046L20.6785 76.9858L20.6785 76.9858L21.7794 78.0046ZM13.1915 99.8304L11.6915 99.8288V99.8304H13.1915ZM22.7808 122.723L21.7261 123.79L21.7261 123.79L22.7808 122.723ZM103.472 132.206V133.706H104.972V132.206H103.472ZM103.472 128.159H104.972V126.659H103.472V128.159ZM45.9314 128.159L45.9267 129.659H45.9314V128.159ZM26.19 120.274L27.2223 119.186L27.2223 119.186L26.19 120.274ZM17.4027 101.097L18.9011 101.029L18.9011 101.029L17.4027 101.097ZM43.3736 71.623L43.2439 70.1286L43.2365 70.1293L43.3736 71.623ZM48.039 71.2183L48.1686 72.7127L49.8822 72.564L49.5019 70.8866L48.039 71.2183ZM47.0159 66.7059L45.5526 67.0356L45.553 67.0376L47.0159 66.7059ZM51.0191 37.5111L49.6981 36.8006L49.6981 36.8006L51.0191 37.5111ZM73.2603 17.9079L72.7176 16.5095L72.7176 16.5095L73.2603 17.9079ZM103.048 17.32L103.535 15.9012L103.048 17.32ZM126.062 36.0299L127.355 35.2694L127.354 35.267L126.062 36.0299ZM127.883 39.1258L126.59 39.8864L127.258 41.0211L128.47 40.5065L127.883 39.1258ZM131.219 37.7094L131.805 39.09L131.806 39.0898L131.219 37.7094ZM162.159 40.4139L161.34 41.6708L161.34 41.6708L162.159 40.4139ZM171.532 51.2021H176.305V48.2021H171.532V51.2021ZM177.611 48.9643C174.611 43.6536 170.362 39.1337 165.222 35.7877L163.585 38.3019C168.323 41.3863 172.237 45.5508 174.999 50.44L177.611 48.9643ZM165.222 35.7877C159.922 32.3374 153.839 30.243 147.521 29.6914L147.26 32.68C153.089 33.189 158.699 35.1212 163.585 38.3019L165.222 35.7877ZM147.521 29.6914C141.202 29.1397 134.844 30.1479 129.015 32.626L130.189 35.3868C135.564 33.1014 141.43 32.171 147.26 32.68L147.521 29.6914ZM130.895 33.2457C125.06 23.3288 115.831 15.8081 104.881 12.0397L103.904 14.8764C114.184 18.414 122.84 25.4712 128.309 34.7671L130.895 33.2457ZM104.881 12.0397C93.9306 8.27133 81.979 8.5024 71.1861 12.6913L72.2716 15.4881C82.4033 11.5557 93.6246 11.3387 103.904 14.8764L104.881 12.0397ZM71.1861 12.6913C60.3929 16.8804 51.468 24.7524 46.0291 34.8878L48.6725 36.3063C53.7704 26.8065 62.1402 19.4203 72.2716 15.4881L71.1861 12.6913ZM46.0291 34.8878C40.59 45.0236 38.9979 56.7514 41.5425 67.9489L44.468 67.2841C42.0841 56.7938 43.5749 45.8058 48.6725 36.3063L46.0291 34.8878ZM42.8727 66.1224C34.3663 66.8772 26.4494 70.7503 20.6785 76.9858L22.8803 79.0235C28.1425 73.3377 35.3676 69.8001 43.1378 69.1106L42.8727 66.1224ZM20.6785 76.9858C14.9072 83.2217 11.7 91.3694 11.6915 99.8288L14.6915 99.8319C14.6993 92.1312 17.6185 84.7088 22.8803 79.0235L20.6785 76.9858ZM11.6915 99.8304C11.6915 108.82 15.303 117.438 21.7261 123.79L23.8355 121.657C17.9787 115.865 14.6915 108.014 14.6915 99.8304H11.6915ZM21.7261 123.79C28.1486 130.141 36.8558 133.706 45.9314 133.706V130.706C37.6407 130.706 29.6929 127.449 23.8355 121.657L21.7261 123.79ZM45.9314 133.706H103.472V130.706H45.9314V133.706ZM104.972 132.206V128.159H101.972V132.206H104.972ZM103.472 126.659H45.9314V129.659H103.472V126.659ZM45.936 126.659C38.9558 126.637 32.2549 123.96 27.2223 119.186L25.1577 121.362C30.7486 126.666 38.186 129.635 45.9267 129.659L45.936 126.659ZM27.2223 119.186C22.1903 114.412 19.2125 107.91 18.9011 101.029L15.9042 101.164C16.2508 108.826 19.5663 116.058 25.1577 121.362L27.2223 119.186ZM18.9011 101.029C18.5898 94.1477 20.9686 87.4094 25.5486 82.2117L23.2977 80.2283C18.2068 86.0059 15.5576 93.5028 15.9042 101.164L18.9011 101.029ZM25.5486 82.2117C30.129 77.0134 36.5605 73.7547 43.5107 73.1167L43.2365 70.1293C35.5286 70.8368 28.3882 74.4513 23.2977 80.2283L25.5486 82.2117ZM43.5032 73.1174L48.1686 72.7127L47.9094 69.7239L43.2439 70.1286L43.5032 73.1174ZM49.5019 70.8866L48.4787 66.3742L45.553 67.0376L46.5761 71.55L49.5019 70.8866ZM48.4792 66.3762C46.3298 56.8372 47.6985 46.8521 52.3402 38.2216L49.6981 36.8006C44.7148 46.0663 43.2439 56.79 45.5526 67.0356L48.4792 66.3762ZM52.3402 38.2216C56.9821 29.5906 64.5929 22.8805 73.803 19.3063L72.7176 16.5095C62.8466 20.3402 54.6811 27.5353 49.6981 36.8006L52.3402 38.2216ZM73.803 19.3063C83.0134 15.732 93.2132 15.5306 102.561 18.7388L103.535 15.9012C93.5176 12.4633 82.5883 12.679 72.7176 16.5095L73.803 19.3063ZM102.561 18.7388C111.908 21.9468 119.784 28.3515 124.771 36.7928L127.354 35.267C122.001 26.2061 113.552 19.3393 103.535 15.9012L102.561 18.7388ZM124.769 36.7904L126.59 39.8864L129.176 38.3653L127.355 35.2694L124.769 36.7904ZM128.47 40.5065L131.805 39.09L130.632 36.3287L127.297 37.7452L128.47 40.5065ZM131.806 39.0898C136.56 37.0685 141.747 36.246 146.903 36.6967L147.164 33.7081C141.52 33.2147 135.839 34.115 130.632 36.329L131.806 39.0898ZM146.903 36.6967C152.059 37.1474 157.02 38.857 161.34 41.6708L162.977 39.157C158.243 36.0734 152.809 34.2015 147.164 33.7081L146.903 36.6967ZM161.34 41.6708C164.91 43.9957 167.95 47.014 170.281 50.5309L172.782 48.8733C170.224 45.0142 166.89 41.7048 162.977 39.157L161.34 41.6708Z" fill="#3B4159"/>
<rect x="115.662" y="61.2181" width="106.463" height="71.7021" rx="3" stroke="#3B4159" stroke-width="4"/>
<path d="M133.521 79.2966C133.116 78.9211 133.116 78.3124 133.521 77.9369L134.762 76.7863C135.167 76.4108 135.823 76.4108 136.228 76.7863L145.869 85.7243L143.162 88.2346L133.521 79.2966Z" fill="#3B4159"/>
<path d="M136.228 94.6551C135.823 95.0306 135.167 95.0306 134.762 94.6551L133.521 93.5045C133.116 93.129 133.116 92.5203 133.521 92.1448L143.162 83.2068L145.869 85.7171L136.228 94.6551Z" fill="#3B4159"/>
<rect x="149.766" y="91.6383" width="13.9787" height="4.65957" rx="1" fill="#3B4159"/>
</g>
<defs>
<clipPath id="clip0">
<rect width="596.426" height="146" fill="white"/>
</clipPath>
</defs>
</svg>
